<svg width="14" height="12" viewBox="0 0 14 12" fill="none" xmlns="http://www.w3.org/2000/svg">
<path d="M14 5.99079C13.9951 5.46469 13.7832 4.96169 13.41 4.59079L9.12 0.290793C8.93264 0.104542 8.67919 0 8.415 0C8.15082 0 7.89736 0.104542 7.71 0.290793C7.61627 0.383756 7.54188 0.494357 7.49111 0.616216C7.44034 0.738075 7.4142 0.868781 7.4142 1.00079C7.4142 1.1328 7.44034 1.26351 7.49111 1.38537C7.54188 1.50723 7.61627 1.61783 7.71 1.71079L11 4.99079H1C0.734784 4.99079 0.48043 5.09615 0.292893 5.28369C0.105357 5.47122 0 5.72558 0 5.99079C0 6.25601 0.105357 6.51036 0.292893 6.6979C0.48043 6.88544 0.734784 6.99079 1 6.99079H11L7.71 10.2808C7.5217 10.4678 7.41538 10.7219 7.41444 10.9873C7.41351 11.2526 7.51802 11.5075 7.705 11.6958C7.89198 11.8841 8.1461 11.9904 8.41147 11.9914C8.67683 11.9923 8.9317 11.8878 9.12 11.7008L13.41 7.40079C13.7856 7.02744 13.9978 6.52037 14 5.99079Z" fill="#FBFBFB"/>
</svg>
