<svg width="24" height="24" viewBox="0 0 24 24" fill="none" xmlns="http://www.w3.org/2000/svg">
<path fill-rule="evenodd" clip-rule="evenodd" d="M11.7603 3.99219C7.33611 3.99219 3.75 7.5783 3.75 12.0025C3.75 16.4267 7.33611 20.0128 11.7603 20.0128C16.1845 20.0128 19.7706 16.4267 19.7706 12.0025C19.7706 7.5783 16.1845 3.99219 11.7603 3.99219ZM2.25 12.0025C2.25 6.74987 6.50768 2.49219 11.7603 2.49219C17.0129 2.49219 21.2706 6.74987 21.2706 12.0025C21.2706 17.2551 17.0129 21.5128 11.7603 21.5128C6.50768 21.5128 2.25 17.2551 2.25 12.0025Z" fill="#2B323B"/>
<path fill-rule="evenodd" clip-rule="evenodd" d="M21.6554 5.0375C21.8577 5.39893 21.7287 5.85596 21.3673 6.05829C16.759 8.63806 13.8775 12.8263 12.5028 15.4088C12.3756 15.6478 12.1295 15.7996 11.8588 15.8061C11.5881 15.8126 11.335 15.6728 11.1964 15.4402C10.2738 13.8914 9.1036 12.513 7.67625 11.3076C7.3598 11.0403 7.31992 10.5671 7.58718 10.2507C7.85444 9.93419 8.32764 9.89431 8.64409 10.1616C9.86302 11.191 10.914 12.3407 11.7981 13.6081C13.4186 10.8974 16.2982 7.17697 20.6346 4.74942C20.996 4.54709 21.4531 4.67607 21.6554 5.0375Z" fill="#2B323B"/>
</svg>
