<svg width="32" height="32" viewBox="0 0 32 32" fill="none" xmlns="http://www.w3.org/2000/svg">
<path fill-rule="evenodd" clip-rule="evenodd" d="M14.9305 3.31481C15.5811 2.89506 16.4189 2.89506 17.0695 3.31481L28.0037 10.3728C28.5629 10.7361 28.9036 11.3586 28.9036 12.0297V12.7962C28.9036 13.8857 28.0195 14.7683 26.9303 14.7683H5.0697C3.98055 14.7683 3.09636 13.8857 3.09636 12.7962V12.0297C3.09636 11.3582 3.43755 10.7349 3.99938 10.3717L14.9305 3.31481ZM16 5.00492L5.09636 12.0441V12.7682H26.9036V12.0432L16 5.00492Z" fill="#FBFBFB" fill-opacity="0.5"/>
<path fill-rule="evenodd" clip-rule="evenodd" d="M16 8.68489C16.5523 8.68489 17 9.13261 17 9.68489V9.69822C17 10.2505 16.5523 10.6982 16 10.6982C15.4477 10.6982 15 10.2505 15 9.69822V9.68489C15 9.13261 15.4477 8.68489 16 8.68489Z" fill="#FBFBFB" fill-opacity="0.5"/>
<path fill-rule="evenodd" clip-rule="evenodd" d="M3.5986 24.6179C3.76819 23.8476 4.45134 23.2992 5.23958 23.2992H26.7603C27.5485 23.2992 28.2319 23.8477 28.4013 24.6183L28.9169 26.9588C29.1464 28.0037 28.3531 28.9999 27.2773 28.9999H4.72383C3.65071 28.9999 2.8527 28.0072 3.08268 26.9595L3.5986 24.6179ZM5.49646 25.2992L5.12175 26.9999H26.878L26.5033 25.2992H5.49646Z" fill="#FBFBFB" fill-opacity="0.5"/>
<path fill-rule="evenodd" clip-rule="evenodd" d="M6.9694 12.7679C7.52168 12.7679 7.9694 13.2156 7.9694 13.7679V24.3001C7.9694 24.8524 7.52168 25.3001 6.9694 25.3001C6.41712 25.3001 5.9694 24.8524 5.9694 24.3001V13.7679C5.9694 13.2156 6.41712 12.7679 6.9694 12.7679ZM12.9881 12.7679C13.5404 12.7679 13.9881 13.2156 13.9881 13.7679V24.3001C13.9881 24.8524 13.5404 25.3001 12.9881 25.3001C12.4358 25.3001 11.9881 24.8524 11.9881 24.3001V13.7679C11.9881 13.2156 12.4358 12.7679 12.9881 12.7679ZM19.0093 12.7679C19.5616 12.7679 20.0093 13.2156 20.0093 13.7679V24.3001C20.0093 24.8524 19.5616 25.3001 19.0093 25.3001C18.4571 25.3001 18.0093 24.8524 18.0093 24.3001V13.7679C18.0093 13.2156 18.4571 12.7679 19.0093 12.7679ZM25.028 12.7679C25.5804 12.7679 26.028 13.2156 26.028 13.7679V24.3001C26.028 24.8524 25.5804 25.3001 25.028 25.3001C24.4757 25.3001 24.028 24.8524 24.028 24.3001V13.7679C24.028 13.2156 24.4757 12.7679 25.028 12.7679Z" fill="#FBFBFB" fill-opacity="0.5"/>
</svg>
