<svg width="32" height="32" viewBox="0 0 32 32" fill="none" xmlns="http://www.w3.org/2000/svg">
<path fill-rule="evenodd" clip-rule="evenodd" d="M26.522 27V16.3385H27.3074C27.8597 16.3385 28.3074 15.8908 28.3074 15.3385C28.3074 14.7863 27.8597 14.3385 27.3074 14.3385H26.4751C26.0025 9.32546 22.0128 5.33536 16.9997 4.86241L17.0002 4.00057C17.0005 3.44828 16.553 3.00032 16.0008 3C15.4485 2.99968 15.0005 3.44715 15.0002 3.99943L14.9997 4.86228C9.98612 5.33463 5.99535 9.32497 5.52265 14.3385H4.69189C4.13961 14.3385 3.69189 14.7863 3.69189 15.3385C3.69189 15.8908 4.13961 16.3385 4.69189 16.3385H5.47575V27H4.69189C4.13961 27 3.69189 27.4477 3.69189 28C3.69189 28.5523 4.13961 29 4.69189 29H6.47575H11.2392H16.0001H20.761H25.522H27.3074C27.8597 29 28.3074 28.5523 28.3074 28C28.3074 27.4477 27.8597 27 27.3074 27H26.522ZM24.522 27V16.3385H21.761V27H24.522ZM19.761 27V16.3385H17.0001V27H19.761ZM15.0001 27V16.3385H12.2392V27H15.0001ZM10.2392 27V16.3385H7.47575V27H10.2392ZM24.4639 14.3385H20.761H16.0001H11.2392H7.5338C8.02894 10.1028 11.6305 6.81544 15.999 6.81544C20.3677 6.81544 23.9688 10.1028 24.4639 14.3385Z" fill="#FBFBFB" fill-opacity="0.5"/>
</svg>
