<svg width="40" height="40" viewBox="0 0 40 40" fill="none" xmlns="http://www.w3.org/2000/svg">
<path fill-rule="evenodd" clip-rule="evenodd" d="M33.1527 33.75V20.4232H34.1345C34.8249 20.4232 35.3845 19.8635 35.3845 19.1732C35.3845 18.4828 34.8249 17.9232 34.1345 17.9232H33.0941C32.5033 11.6568 27.5163 6.6692 21.2499 6.07801L21.2505 5.00072C21.2509 4.31035 20.6915 3.7504 20.0012 3.75C19.3109 3.7496 18.7509 4.30893 18.7505 4.99928L18.7499 6.07785C12.4829 6.66829 7.49444 11.6562 6.90356 17.9232H5.86511C5.17476 17.9232 4.61511 18.4828 4.61511 19.1732C4.61511 19.8635 5.17476 20.4232 5.86511 20.4232H6.84493V33.75H5.86511C5.17476 33.75 4.61511 34.3097 4.61511 35C4.61511 35.6903 5.17476 36.25 5.86511 36.25H8.09493H14.0492H20.0004H25.9515H31.9027H34.1345C34.8249 36.25 35.3845 35.6903 35.3845 35C35.3845 34.3097 34.8249 33.75 34.1345 33.75H33.1527ZM30.6527 33.75V20.4232H27.2015V33.75H30.6527ZM24.7015 33.75V20.4232H21.2504V33.75H24.7015ZM18.7504 33.75V20.4232H15.2992V33.75H18.7504ZM12.7992 33.75V20.4232H9.34493V33.75H12.7992ZM30.5801 17.9232H25.9515H20.0004H14.0492H9.4175C10.0364 12.6285 14.5383 8.5193 19.999 8.5193C25.4598 8.5193 29.9613 12.6285 30.5801 17.9232Z" fill="#2B323B"/>
</svg>
