<svg width="40" height="40" viewBox="0 0 40 40" fill="none" xmlns="http://www.w3.org/2000/svg">
<path fill-rule="evenodd" clip-rule="evenodd" d="M18.6632 4.14351C19.4763 3.61883 20.5237 3.61883 21.3368 4.14351L35.0047 12.966C35.7037 13.4201 36.1295 14.1983 36.1295 15.0371V15.9952C36.1295 17.3572 35.0243 18.4603 33.6628 18.4603H6.33712C4.97569 18.4603 3.87045 17.3572 3.87045 15.9952V15.0371C3.87045 14.1977 4.29694 13.4186 4.99922 12.9646L18.6632 4.14351ZM20 6.25615L6.37045 15.0551V15.9603H33.6295V15.054L20 6.25615Z" fill="#2B323B"/>
<path fill-rule="evenodd" clip-rule="evenodd" d="M20 10.8561C20.6903 10.8561 21.25 11.4158 21.25 12.1061V12.1228C21.25 12.8131 20.6903 13.3728 20 13.3728C19.3097 13.3728 18.75 12.8131 18.75 12.1228V12.1061C18.75 11.4158 19.3097 10.8561 20 10.8561Z" fill="#2B323B"/>
<path fill-rule="evenodd" clip-rule="evenodd" d="M4.49825 30.7723C4.71024 29.8095 5.56417 29.124 6.54947 29.124H33.4503C34.4357 29.124 35.2898 29.8097 35.5017 30.7728L36.1462 33.6985C36.433 35.0047 35.4413 36.2498 34.0967 36.2498H5.90479C4.56339 36.2498 3.56587 35.009 3.85335 33.6993L4.49825 30.7723ZM6.87057 31.624L6.40219 33.7498H33.5975L33.1292 31.624H6.87057Z" fill="#2B323B"/>
<path fill-rule="evenodd" clip-rule="evenodd" d="M8.71175 15.9599C9.4021 15.9599 9.96175 16.5195 9.96175 17.2098V30.3752C9.96175 31.0655 9.4021 31.6252 8.71175 31.6252C8.0214 31.6252 7.46175 31.0655 7.46175 30.3752V17.2098C7.46175 16.5195 8.0214 15.9599 8.71175 15.9599ZM16.2351 15.9599C16.9255 15.9599 17.4852 16.5195 17.4852 17.2098V30.3752C17.4852 31.0655 16.9255 31.6252 16.2351 31.6252C15.5448 31.6252 14.9851 31.0655 14.9851 30.3752V17.2098C14.9851 16.5195 15.5448 15.9599 16.2351 15.9599ZM23.7617 15.9599C24.452 15.9599 25.0117 16.5195 25.0117 17.2098V30.3752C25.0117 31.0655 24.452 31.6252 23.7617 31.6252C23.0713 31.6252 22.5117 31.0655 22.5117 30.3752V17.2098C22.5117 16.5195 23.0713 15.9599 23.7617 15.9599ZM31.285 15.9599C31.9755 15.9599 32.535 16.5195 32.535 17.2098V30.3752C32.535 31.0655 31.9755 31.6252 31.285 31.6252C30.5947 31.6252 30.035 31.0655 30.035 30.3752V17.2098C30.035 16.5195 30.5947 15.9599 31.285 15.9599Z" fill="#2B323B"/>
</svg>
