<svg width="32" height="32" viewBox="0 0 32 32" fill="none" xmlns="http://www.w3.org/2000/svg">
<path fill-rule="evenodd" clip-rule="evenodd" d="M3.08593 11.8098C3.08593 6.96494 7.01862 3.04443 11.85 3.04443C16.6941 3.04443 20.6153 6.96573 20.6153 11.8098C20.6153 12.0615 20.6019 12.2978 20.5903 12.5027L20.5899 12.5096C20.5584 13.061 20.086 13.4826 19.5345 13.4511C18.9832 13.4198 18.5617 12.9472 18.5931 12.3959C18.6052 12.1826 18.6153 11.9989 18.6153 11.8098C18.6153 8.07029 15.5895 5.04443 11.85 5.04443C8.12164 5.04443 5.08593 8.07107 5.08593 11.8098C5.08593 15.5374 8.12241 18.5739 11.85 18.5739C12.025 18.5739 12.1906 18.5654 12.3845 18.5555C12.4035 18.5546 12.4228 18.5535 12.4423 18.5526C12.9939 18.5247 13.4637 18.9491 13.4916 19.5007C13.5196 20.0523 13.095 20.522 12.5435 20.55C12.5237 20.551 12.5035 20.552 12.483 20.5531C12.2957 20.5627 12.0791 20.5739 11.85 20.5739C7.01784 20.5739 3.08593 16.6419 3.08593 11.8098Z" fill="#FBFBFB" fill-opacity="0.5"/>
<path fill-rule="evenodd" clip-rule="evenodd" d="M11.474 20.1926C11.474 15.3523 15.398 11.4299 20.2367 11.4299C25.0768 11.4299 28.9995 15.3524 28.9995 20.1926C28.9995 25.0327 25.0768 28.9554 20.2367 28.9554C15.398 28.9554 11.474 25.0328 11.474 20.1926ZM20.2367 13.4299C16.5024 13.4299 13.474 16.4571 13.474 20.1926C13.474 23.928 16.5024 26.9554 20.2367 26.9554C23.9723 26.9554 26.9995 23.9282 26.9995 20.1926C26.9995 16.4571 23.9723 13.4299 20.2367 13.4299Z" fill="#FBFBFB" fill-opacity="0.5"/>
<path fill-rule="evenodd" clip-rule="evenodd" d="M3.79598 20.8391C4.33664 20.7264 4.86634 21.0732 4.97913 21.6139C5.46168 23.9271 7.13897 25.8523 9.39666 26.628C9.91898 26.8074 10.1969 27.3763 10.0175 27.8987C9.83802 28.421 9.26913 28.6988 8.74681 28.5195C5.81608 27.5126 3.64653 25.0196 3.02128 22.0223C2.90849 21.4816 3.25534 20.9519 3.79598 20.8391Z" fill="#FBFBFB" fill-opacity="0.5"/>
<path fill-rule="evenodd" clip-rule="evenodd" d="M21.69 3.87863C21.8695 3.35631 22.4383 3.07837 22.9607 3.25782C25.8913 4.26475 28.0609 6.75761 28.6861 9.75498C28.7989 10.2956 28.4521 10.8253 27.9115 10.9381C27.3708 11.0509 26.8411 10.704 26.7283 10.1634C26.2457 7.85014 24.5684 5.92499 22.3108 5.1493C21.7884 4.96985 21.5105 4.40095 21.69 3.87863Z" fill="#FBFBFB" fill-opacity="0.5"/>
</svg>
