<svg width="40" height="40" viewBox="0 0 40 40" fill="none" xmlns="http://www.w3.org/2000/svg">
<path fill-rule="evenodd" clip-rule="evenodd" d="M9.0316 5.60273C9.26605 5.36814 9.58412 5.23633 9.91577 5.23633H30.0832C30.7735 5.23633 31.3332 5.79598 31.3332 6.48633H30.0832C31.3332 6.48633 31.3332 6.48633 31.3332 6.48633V6.50489L31.3328 6.54906C31.3325 6.58684 31.3318 6.64116 31.3305 6.71091C31.3278 6.8504 31.3227 7.05173 31.3125 7.30611C31.292 7.81458 31.2513 8.53664 31.1703 9.40151C31.0085 11.1253 30.6838 13.4442 30.0267 15.7799C29.3737 18.1007 28.3668 20.5319 26.7863 22.4042C25.4087 24.0362 23.5865 25.2469 21.2443 25.5642V27.6419H25.3998C25.9433 27.6419 26.4247 27.9932 26.5903 28.5111L27.7912 32.2636H29.5738C30.2642 32.2636 30.8238 32.8232 30.8238 33.5136C30.8238 34.2039 30.2642 34.7636 29.5738 34.7636H26.9162C26.891 34.7644 26.8658 34.7644 26.8407 34.7636H13.3983C13.3733 34.7644 13.3481 34.7644 13.3229 34.7636H10.6649C9.9745 34.7636 9.41485 34.2039 9.41485 33.5136C9.41485 32.8232 9.9745 32.2636 10.6649 32.2636H12.4479L13.6488 28.5111C13.8144 27.9932 14.2957 27.6419 14.8393 27.6419H18.7443V25.5616C16.4121 25.2399 14.5961 24.0316 13.2217 22.4044C11.6405 20.5324 10.6324 18.1012 9.97802 15.7806C9.31945 13.445 8.99328 11.1261 8.83053 9.40226C8.74888 8.53741 8.70774 7.81536 8.68699 7.30689C8.6766 7.05251 8.6713 6.85118 8.6686 6.71171C8.66725 6.64196 8.66654 6.58763 8.66617 6.54984L8.66584 6.50569L8.66577 6.48933C8.66577 6.48933 8.66577 6.48713 9.91577 6.48633L8.66577 6.48713C8.66557 6.15546 8.79717 5.83733 9.0316 5.60273ZM11.2109 7.73633C11.2337 8.13798 11.268 8.62188 11.3195 9.16728C11.4738 10.8016 11.7803 12.9602 12.3842 15.1021C12.9923 17.2589 13.8765 19.3052 15.1316 20.7914C16.3554 22.2402 17.915 23.1464 20.0043 23.1464C22.094 23.1464 23.6532 22.2402 24.876 20.7916C26.1303 19.3057 27.0132 17.2596 27.62 15.1028C28.2227 12.9609 28.5278 10.8024 28.6812 9.16804C28.7323 8.62231 28.7663 8.13813 28.7888 7.73633H11.2109ZM19.9482 30.1419H15.7517L15.0728 32.2636H25.1662L24.4873 30.1419H20.0405C20.0252 30.1426 20.0098 30.1427 19.9943 30.1427C19.9788 30.1427 19.9635 30.1426 19.9482 30.1419Z" fill="#2B323B"/>
<path fill-rule="evenodd" clip-rule="evenodd" d="M3.79637 9.28128C3.86734 8.64883 4.40215 8.17064 5.03859 8.17064H10.0902C10.7805 8.17064 11.3402 8.73029 11.3402 9.42064C11.3402 10.111 10.7805 10.6706 10.0902 10.6706H6.25502C6.27132 11.2269 6.33129 11.9408 6.49195 12.7178C6.8611 14.503 7.73122 16.4955 9.69097 17.7857C10.2676 18.1652 10.4273 18.9404 10.0477 19.5171C9.66807 20.0937 8.8929 20.2534 8.31628 19.8737C5.60068 18.0861 4.48829 15.3739 4.04374 13.2241C3.82019 12.1429 3.75777 11.172 3.7507 10.4706C3.74717 10.1186 3.75754 9.83098 3.76925 9.62701C3.7751 9.52493 3.78134 9.44353 3.78635 9.38518C3.78887 9.356 3.79109 9.33254 3.79282 9.31514L3.79504 9.29358L3.79612 9.28348L3.79637 9.28128C3.79637 9.28128 3.79637 9.28128 5.03859 9.42064L3.79637 9.28128Z" fill="#2B323B"/>
<path fill-rule="evenodd" clip-rule="evenodd" d="M28.6588 9.42064C28.6588 8.73029 29.2185 8.17064 29.9088 8.17064H34.9605C35.5968 8.17064 36.1317 8.64883 36.2027 9.28128L34.9605 9.42064C36.2027 9.28128 36.2027 9.28128 36.2027 9.28128L36.2032 9.28626L36.204 9.29358L36.2062 9.31514C36.208 9.33254 36.2102 9.356 36.2127 9.38518C36.2177 9.44353 36.2238 9.52493 36.2298 9.62701C36.2415 9.83098 36.2518 10.1186 36.2483 10.4706C36.2412 11.172 36.1788 12.1429 35.9553 13.2241C35.5107 15.3739 34.3983 18.0861 31.6827 19.8737C31.1062 20.2534 30.331 20.0937 29.9513 19.5171C29.5717 18.9404 29.7315 18.1652 30.308 17.7857C32.2678 16.4955 33.138 14.503 33.507 12.7178C33.6677 11.9408 33.7277 11.2269 33.744 10.6706H29.9088C29.2185 10.6706 28.6588 10.111 28.6588 9.42064Z" fill="#2B323B"/>
</svg>
