<svg width="32" height="32" viewBox="0 0 32 32" fill="none" xmlns="http://www.w3.org/2000/svg">
<path fill-rule="evenodd" clip-rule="evenodd" d="M7.22528 4.48208C7.41284 4.29442 7.66729 4.18896 7.93261 4.18896H24.0665C24.6188 4.18896 25.0665 4.63668 25.0665 5.18896H24.0665C25.0665 5.18896 25.0665 5.18896 25.0665 5.18896V5.20382L25.0663 5.23915C25.066 5.26938 25.0655 5.31283 25.0644 5.36863C25.0623 5.48022 25.0581 5.64128 25.05 5.84479C25.0336 6.25156 25.0011 6.82922 24.9363 7.52111C24.8068 8.90015 24.5471 10.7553 24.0213 12.6238C23.4989 14.4805 22.6935 16.4254 21.4291 17.9233C20.3269 19.2289 18.8692 20.1974 16.9955 20.4513V22.1134H20.3199C20.7547 22.1134 21.1397 22.3945 21.2723 22.8088L22.2329 25.8108H23.6591C24.2113 25.8108 24.6591 26.2585 24.6591 26.8108C24.6591 27.363 24.2113 27.8108 23.6591 27.8108H21.5329C21.5128 27.8114 21.4927 27.8114 21.4725 27.8108H10.7187C10.6986 27.8114 10.6785 27.8114 10.6583 27.8108H8.53188C7.9796 27.8108 7.53188 27.363 7.53188 26.8108C7.53188 26.2585 7.9796 25.8108 8.53188 25.8108H9.95835L10.919 22.8088C11.0515 22.3945 11.4366 22.1134 11.8714 22.1134H14.9955V20.4492C13.1297 20.1918 11.6769 19.2252 10.5774 17.9234C9.31243 16.4258 8.5059 14.4809 7.98242 12.6244C7.45556 10.7559 7.19463 8.90075 7.06443 7.52171C6.99911 6.82983 6.96619 6.25219 6.94959 5.84542C6.94128 5.64191 6.93704 5.48084 6.93488 5.36927C6.9338 5.31347 6.93323 5.27 6.93293 5.23978L6.93267 5.20446L6.93262 5.19136C6.93262 5.19136 6.93261 5.1896 7.93261 5.18896L6.93262 5.1896C6.93246 4.92427 7.03774 4.66976 7.22528 4.48208ZM8.96875 6.18896C8.98697 6.51028 9.01439 6.8974 9.05557 7.33372C9.17901 8.64119 9.4242 10.3681 9.90735 12.0816C10.3939 13.807 11.1012 15.4441 12.1053 16.633C13.0843 17.7921 14.332 18.517 16.0035 18.517C17.6752 18.517 18.9225 17.7921 19.9008 16.6332C20.9043 15.4445 21.6105 13.8076 22.096 12.0821C22.5781 10.3687 22.8223 8.64179 22.9449 7.33434C22.9859 6.89775 23.0131 6.5104 23.0311 6.18896H8.96875ZM15.9585 24.1134H12.6014L12.0583 25.8108H20.1329L19.5899 24.1134H16.0324C16.0201 24.114 16.0079 24.1141 15.9955 24.1141C15.9831 24.1141 15.9708 24.114 15.9585 24.1134Z" fill="#FBFBFB" fill-opacity="0.5"/>
<path fill-rule="evenodd" clip-rule="evenodd" d="M3.03709 7.42492C3.09387 6.91896 3.52172 6.53642 4.03087 6.53642H8.07213C8.62441 6.53642 9.07213 6.98414 9.07213 7.53642C9.07213 8.08871 8.62441 8.53642 8.07213 8.53642H5.00401C5.01705 8.98146 5.06503 9.55256 5.19356 10.1742C5.48888 11.6023 6.18497 13.1963 7.75277 14.2285C8.21407 14.5321 8.34184 15.1522 8.03815 15.6136C7.73446 16.0749 7.11432 16.2026 6.65303 15.8989C4.48055 14.4688 3.59063 12.299 3.23499 10.5792C3.05615 9.71423 3.00621 8.93748 3.00056 8.37635C2.99773 8.09476 3.00603 7.86468 3.0154 7.70151C3.02008 7.61984 3.02507 7.55472 3.02908 7.50804C3.03109 7.4847 3.03287 7.46594 3.03425 7.45202L3.03603 7.43476L3.03689 7.42668L3.03709 7.42492C3.03709 7.42492 3.03709 7.42492 4.03087 7.53642L3.03709 7.42492Z" fill="#FBFBFB" fill-opacity="0.5"/>
<path fill-rule="evenodd" clip-rule="evenodd" d="M22.9271 7.53642C22.9271 6.98414 23.3748 6.53642 23.9271 6.53642H27.9684C28.4775 6.53642 28.9053 6.91896 28.9621 7.42492L27.9684 7.53642C28.9621 7.42492 28.9621 7.42492 28.9621 7.42492L28.9625 7.42891L28.9632 7.43476L28.9649 7.45202C28.9664 7.46594 28.9681 7.4847 28.9701 7.50804C28.9741 7.55472 28.9791 7.61984 28.9839 7.70151C28.9932 7.86468 29.0015 8.09476 28.9987 8.37635C28.9929 8.93748 28.9431 9.71423 28.7643 10.5792C28.4085 12.299 27.5187 14.4688 25.3461 15.8989C24.8849 16.2026 24.2648 16.0749 23.9611 15.6136C23.6573 15.1522 23.7852 14.5321 24.2464 14.2285C25.8143 13.1963 26.5104 11.6023 26.8056 10.1742C26.9341 9.55256 26.9821 8.98146 26.9952 8.53642H23.9271C23.3748 8.53642 22.9271 8.08871 22.9271 7.53642Z" fill="#FBFBFB" fill-opacity="0.5"/>
</svg>
