<svg width="32" height="32" viewBox="0 0 32 32" fill="none" xmlns="http://www.w3.org/2000/svg">
<path fill-rule="evenodd" clip-rule="evenodd" d="M10.9822 5C8.66478 5 6.78638 6.8784 6.78638 9.19581V21.5088C6.78638 23.8261 8.66478 25.7045 10.9822 25.7045H14.2515C14.8038 25.7045 15.2515 26.1523 15.2515 26.7045C15.2515 27.2569 14.8038 27.7045 14.2515 27.7045H10.9822C7.56022 27.7045 4.78638 24.9308 4.78638 21.5088V9.19581C4.78638 5.77383 7.56022 3 10.9822 3H19.9338C23.3558 3 26.1295 5.77383 26.1295 9.19581V13.4407C26.1295 13.9929 25.6819 14.4407 25.1295 14.4407C24.5773 14.4407 24.1295 13.9929 24.1295 13.4407V9.19581C24.1295 6.8784 22.2511 5 19.9338 5H10.9822Z" fill="#FBFBFB" fill-opacity="0.5"/>
<path fill-rule="evenodd" clip-rule="evenodd" d="M10.147 11.5417C10.147 10.9894 10.5947 10.5417 11.147 10.5417H16.3259C16.8782 10.5417 17.3259 10.9894 17.3259 11.5417C17.3259 12.0939 16.8782 12.5417 16.3259 12.5417H11.147C10.5947 12.5417 10.147 12.0939 10.147 11.5417ZM10.1458 17.1377C10.1458 16.5853 10.5935 16.1377 11.1458 16.1377H13.2604C13.8127 16.1377 14.2605 16.5853 14.2605 17.1377C14.2605 17.69 13.8127 18.1377 13.2604 18.1377H11.1458C10.5935 18.1377 10.1458 17.69 10.1458 17.1377Z" fill="#FBFBFB" fill-opacity="0.5"/>
<path d="M21.9062 28.8005C21.5974 28.8013 21.2914 28.7413 21.0059 28.6237C20.7203 28.5061 20.4609 28.3333 20.2422 28.1152L19.7982 27.6725C19.7301 27.6052 19.6381 27.5673 19.5422 27.5672H18.9222C18.2953 27.5661 17.6943 27.3167 17.2513 26.8732C16.8081 26.4299 16.5589 25.8288 16.5582 25.2019V24.5779C16.5587 24.5284 16.5494 24.4793 16.5306 24.4335C16.5118 24.3877 16.4841 24.3461 16.4489 24.3112L16.0195 23.8819C15.5773 23.4408 15.3277 22.8424 15.3255 22.2177C15.3233 21.5931 15.5685 20.9929 16.0075 20.5485L16.0475 20.5099L16.4475 20.1099C16.5151 20.0419 16.553 19.9499 16.5529 19.8539V19.2339C16.5539 18.6073 16.8031 18.0068 17.2459 17.5635C17.6886 17.1203 18.289 16.8704 18.9155 16.8685H19.5382C19.6345 16.8685 19.7269 16.8307 19.7955 16.7632L20.2262 16.3325C20.6685 15.8884 21.2689 15.6377 21.8957 15.6355C22.5226 15.6332 23.1247 15.8796 23.5702 16.3205L24.0115 16.7619C24.045 16.7957 24.0849 16.8227 24.1287 16.8409C24.1727 16.8593 24.2199 16.8687 24.2675 16.8685H24.8902C25.5173 16.8693 26.1185 17.1187 26.5619 17.5621C27.0054 18.0056 27.2547 18.6068 27.2555 19.2339V19.8552C27.2559 19.9508 27.2933 20.0424 27.3595 20.1112L27.7942 20.5459C28.2371 20.9887 28.4865 21.5888 28.4879 22.2149C28.4895 22.8411 28.2429 23.4424 27.8022 23.8872L27.3582 24.3312C27.2925 24.3985 27.2561 24.4892 27.2569 24.5832V25.2072C27.2562 25.8339 27.0069 26.4347 26.5635 26.8776C26.1203 27.3205 25.5195 27.5696 24.8929 27.5699H24.2662C24.2193 27.5697 24.1726 27.5788 24.1291 27.5967C24.0857 27.6145 24.0462 27.6408 24.0129 27.6739L23.5742 28.1099C23.3566 28.3301 23.0975 28.5051 22.8119 28.6245C22.5262 28.744 22.2198 28.8057 21.9102 28.8059L21.9062 28.8005ZM17.4102 21.9739C17.3501 22.044 17.3186 22.1343 17.3223 22.2265C17.3261 22.3188 17.3646 22.4063 17.4302 22.4712L17.8675 22.9099C18.3095 23.3525 18.5579 23.9524 18.5582 24.5779V25.2019C18.5582 25.2985 18.5965 25.3913 18.6647 25.4597C18.733 25.5283 18.8255 25.5669 18.9222 25.5672H19.5422C20.1673 25.5684 20.7666 25.8161 21.2102 26.2565L21.6435 26.6885C21.6783 26.724 21.7198 26.752 21.7657 26.7709C21.8114 26.79 21.8606 26.7996 21.9102 26.7992C21.9577 26.7996 22.0047 26.7903 22.0485 26.772C22.0922 26.7536 22.1318 26.7267 22.1649 26.6925L22.6062 26.2525C22.8246 26.0333 23.0846 25.8597 23.3706 25.7416C23.6567 25.6235 23.9633 25.5633 24.2729 25.5645H24.8982C24.9462 25.5648 24.9938 25.5555 25.0382 25.5371C25.0826 25.5188 25.1229 25.4919 25.1569 25.4579C25.225 25.3891 25.2633 25.2961 25.2635 25.1992V24.5779C25.2622 23.9539 25.5086 23.3549 25.9489 22.9125L26.3875 22.4739C26.4217 22.4399 26.4486 22.3995 26.4671 22.3549C26.4855 22.3104 26.495 22.2628 26.495 22.2145C26.495 22.1664 26.4855 22.1187 26.4671 22.0743C26.4486 22.0297 26.4217 21.9893 26.3875 21.9552L25.9515 21.5179C25.7322 21.2992 25.5583 21.0392 25.4399 20.7529C25.3217 20.4665 25.2613 20.1597 25.2622 19.8499V19.2285C25.2622 19.1317 25.2238 19.0388 25.1553 18.9703C25.0867 18.9017 24.9937 18.8632 24.8969 18.8632H24.2742C23.9643 18.8641 23.6573 18.8036 23.371 18.6851C23.0846 18.5665 22.8247 18.3923 22.6062 18.1725L22.1729 17.7419L22.1529 17.7232C22.0861 17.6628 21.999 17.6295 21.9089 17.6299C21.861 17.6297 21.8137 17.6392 21.7695 17.6575C21.7253 17.6757 21.6853 17.7027 21.6515 17.7365L21.2169 18.1725C20.7723 18.6135 20.1722 18.8616 19.5462 18.8632H18.9249C18.8282 18.8636 18.7355 18.9023 18.6674 18.9707C18.5991 19.0392 18.5609 19.1319 18.5609 19.2285V19.8499C18.5613 20.1595 18.5007 20.466 18.3825 20.752C18.2642 21.038 18.0905 21.2979 17.8715 21.5165L17.4382 21.9512L17.4102 21.9739ZM21.2742 24.5205C21.1426 24.5205 21.0123 24.4944 20.8909 24.4439C20.7693 24.3932 20.659 24.3192 20.5662 24.2259L19.3395 22.9965C19.1577 22.8077 19.0571 22.5549 19.0598 22.2928C19.0625 22.0305 19.1679 21.7799 19.3537 21.5948C19.5393 21.4096 19.7903 21.3048 20.0525 21.3029C20.3147 21.3009 20.5671 21.4021 20.7555 21.5845L21.2755 22.1045L23.0969 20.2832C23.2854 20.1011 23.5379 20.0001 23.8002 20.0023C24.0623 20.0044 24.3131 20.1095 24.4986 20.2948C24.6842 20.4801 24.7894 20.7308 24.7918 20.9931C24.7942 21.2552 24.6935 21.5079 24.5115 21.6965L21.9782 24.2299C21.791 24.4157 21.5379 24.5203 21.2742 24.5205Z" fill="#FBFBFB" fill-opacity="0.5"/>
</svg>
