<svg width="40" height="40" viewBox="0 0 40 40" fill="none" xmlns="http://www.w3.org/2000/svg">
<path fill-rule="evenodd" clip-rule="evenodd" d="M13.7279 6.25C10.8311 6.25 8.48309 8.598 8.48309 11.4948V26.886C8.48309 29.7827 10.8311 32.1307 13.7279 32.1307H17.8145C18.5049 32.1307 19.0645 32.6903 19.0645 33.3807C19.0645 34.0712 18.5049 34.6307 17.8145 34.6307H13.7279C9.45039 34.6307 5.98309 31.1635 5.98309 26.886V11.4948C5.98309 7.21728 9.45039 3.75 13.7279 3.75H24.9174C29.1949 3.75 32.662 7.21728 32.662 11.4948V16.8008C32.662 17.4912 32.1025 18.0508 31.412 18.0508C30.7217 18.0508 30.162 17.4912 30.162 16.8008V11.4948C30.162 8.598 27.814 6.25 24.9174 6.25H13.7279Z" fill="#2B323B"/>
<path fill-rule="evenodd" clip-rule="evenodd" d="M12.6839 14.4271C12.6839 13.7367 13.2435 13.1771 13.9339 13.1771H20.4075C21.0979 13.1771 21.6575 13.7367 21.6575 14.4271C21.6575 15.1174 21.0979 15.6771 20.4075 15.6771H13.9339C13.2435 15.6771 12.6839 15.1174 12.6839 14.4271ZM12.6823 21.4222C12.6823 20.7317 13.242 20.1722 13.9323 20.1722H16.5756C17.266 20.1722 17.8257 20.7317 17.8257 21.4222C17.8257 22.1125 17.266 22.6722 16.5756 22.6722H13.9323C13.242 22.6722 12.6823 22.1125 12.6823 21.4222Z" fill="#2B323B"/>
<path d="M27.3829 36.0007C26.9969 36.0017 26.6144 35.9267 26.2575 35.7797C25.9005 35.6327 25.5762 35.4167 25.3029 35.144L24.7479 34.5907C24.6627 34.5065 24.5477 34.4592 24.4279 34.459H23.6529C22.8692 34.4577 22.118 34.1458 21.5642 33.5915C21.0102 33.0373 20.6987 32.286 20.6979 31.5023V30.7223C20.6985 30.6605 20.6869 30.5992 20.6634 30.5418C20.6399 30.4847 20.6052 30.4327 20.5612 30.389L20.0245 29.8523C19.4717 29.301 19.1597 28.553 19.157 27.7722C19.1542 26.9913 19.4607 26.2412 20.0095 25.6857L20.0595 25.6373L20.5595 25.1373C20.644 25.0523 20.6914 24.9373 20.6912 24.8173V24.0423C20.6925 23.2592 21.004 22.5085 21.5575 21.9543C22.1109 21.4003 22.8614 21.088 23.6445 21.0857H24.4229C24.5432 21.0857 24.6587 21.0383 24.7445 20.954L25.2829 20.4157C25.8357 19.8605 26.5862 19.5472 27.3697 19.5443C28.1534 19.5415 28.906 19.8495 29.4629 20.4007L30.0145 20.9523C30.0564 20.9947 30.1062 21.0283 30.161 21.0512C30.216 21.0742 30.275 21.0858 30.3345 21.0857H31.1129C31.8967 21.0867 32.6482 21.3983 33.2025 21.9527C33.7569 22.507 34.0685 23.2585 34.0695 24.0423V24.819C34.07 24.9385 34.1167 25.053 34.1995 25.139L34.7429 25.6823C35.2965 26.2358 35.6082 26.986 35.61 27.7687C35.612 28.5513 35.3037 29.303 34.7529 29.859L34.1979 30.414C34.1157 30.4982 34.0702 30.6115 34.0712 30.729V31.509C34.0704 32.2923 33.7587 33.0433 33.2045 33.597C32.6505 34.1507 31.8995 34.462 31.1162 34.4623H30.3329C30.2742 34.4622 30.2159 34.4735 30.1615 34.4958C30.1072 34.5182 30.0579 34.551 30.0162 34.5923L29.4679 35.1373C29.1959 35.4127 28.872 35.6313 28.515 35.7807C28.1579 35.93 27.7749 36.0072 27.3879 36.0073L27.3829 36.0007ZM21.7629 27.4673C21.6877 27.555 21.6484 27.6678 21.653 27.7832C21.6577 27.8985 21.7059 28.0078 21.7879 28.089L22.3345 28.6373C22.887 29.1907 23.1975 29.9405 23.1979 30.7223V31.5023C23.1979 31.6232 23.2457 31.7392 23.331 31.8247C23.4164 31.9103 23.532 31.9587 23.6529 31.959H24.4279C25.2092 31.9605 25.9584 32.2702 26.5129 32.8207L27.0545 33.3607C27.098 33.405 27.1499 33.44 27.2072 33.4637C27.2644 33.4875 27.3259 33.4995 27.3879 33.499C27.4472 33.4995 27.506 33.4878 27.5607 33.465C27.6154 33.442 27.6649 33.4083 27.7062 33.3657L28.2579 32.8157C28.5309 32.5417 28.8559 32.3247 29.2134 32.177C29.571 32.0293 29.9542 31.9542 30.3412 31.9557H31.1229C31.1829 31.956 31.2424 31.9443 31.2979 31.9213C31.3534 31.8985 31.4037 31.8648 31.4462 31.8223C31.5314 31.7363 31.5792 31.6202 31.5795 31.499V30.7223C31.5779 29.9423 31.8859 29.1937 32.4362 28.6407L32.9845 28.0923C33.0272 28.0498 33.0609 27.9993 33.084 27.9437C33.107 27.888 33.1189 27.8285 33.1189 27.7682C33.1189 27.708 33.107 27.6483 33.084 27.5928C33.0609 27.5372 33.0272 27.4867 32.9845 27.444L32.4395 26.8973C32.1654 26.624 31.948 26.299 31.8 25.9412C31.6522 25.5832 31.5767 25.1997 31.5779 24.8123V24.0357C31.5779 23.9147 31.5299 23.7985 31.4442 23.7128C31.3585 23.6272 31.2422 23.579 31.1212 23.579H30.3429C29.9555 23.5802 29.5717 23.5045 29.2139 23.3563C28.8559 23.2082 28.531 22.9903 28.2579 22.7157L27.7162 22.1773L27.6912 22.154C27.6077 22.0785 27.4989 22.0368 27.3862 22.0373C27.3264 22.0372 27.2672 22.049 27.212 22.0718C27.1567 22.0947 27.1067 22.1283 27.0645 22.1707L26.5212 22.7157C25.9655 23.2668 25.2154 23.577 24.4329 23.579H23.6562C23.5354 23.5795 23.4195 23.6278 23.3344 23.7133C23.249 23.799 23.2012 23.9148 23.2012 24.0357V24.8123C23.2017 25.1993 23.126 25.5825 22.9782 25.94C22.8304 26.2975 22.6132 26.6223 22.3395 26.8957L21.7979 27.439L21.7629 27.4673ZM26.5929 30.6507C26.4284 30.6507 26.2655 30.618 26.1137 30.5548C25.9617 30.4915 25.8239 30.399 25.7079 30.2823L24.1745 28.7457C23.9472 28.5097 23.8215 28.1937 23.8249 27.866C23.8282 27.5382 23.96 27.2248 24.1922 26.9935C24.4242 26.762 24.738 26.631 25.0657 26.6287C25.3935 26.6262 25.709 26.7527 25.9445 26.9807L26.5945 27.6307L28.8712 25.354C29.1069 25.1263 29.4225 25.0002 29.7504 25.0028C30.078 25.0055 30.3915 25.1368 30.6234 25.3685C30.8554 25.6002 30.9869 25.9135 30.9899 26.2413C30.9929 26.569 30.867 26.8848 30.6395 27.1207L27.4729 30.2873C27.2389 30.5197 26.9225 30.6503 26.5929 30.6507Z" fill="#2B323B"/>
</svg>
