<svg width="40" height="40" viewBox="0 0 40 40" fill="none" xmlns="http://www.w3.org/2000/svg">
<path fill-rule="evenodd" clip-rule="evenodd" d="M3.85741 14.7619C3.85741 8.70581 8.77328 3.80518 14.8125 3.80518C20.8677 3.80518 25.7692 8.70679 25.7692 14.7619C25.7692 15.0766 25.7523 15.3718 25.7378 15.628L25.7373 15.6366C25.698 16.3259 25.1075 16.8528 24.4182 16.8135C23.729 16.7743 23.2022 16.1837 23.2413 15.4945C23.2565 15.2279 23.2692 14.9983 23.2692 14.7619C23.2692 10.0875 19.4868 6.30518 14.8125 6.30518C10.152 6.30518 6.35741 10.0885 6.35741 14.7619C6.35741 19.4213 10.153 23.217 14.8125 23.217C15.0312 23.217 15.2383 23.2063 15.4806 23.194C15.5044 23.1928 15.5284 23.1915 15.5529 23.1903C16.2424 23.1555 16.8297 23.686 16.8645 24.3755C16.8995 25.065 16.3688 25.6522 15.6793 25.6872C15.6546 25.6883 15.6294 25.6897 15.6037 25.691C15.3697 25.703 15.0989 25.717 14.8125 25.717C8.77229 25.717 3.85741 20.802 3.85741 14.7619Z" fill="#2B323B"/>
<path fill-rule="evenodd" clip-rule="evenodd" d="M14.3424 25.2403C14.3424 19.19 19.2475 14.287 25.2958 14.287C31.346 14.287 36.2493 19.1902 36.2493 25.2403C36.2493 31.2905 31.346 36.1938 25.2958 36.1938C19.2475 36.1938 14.3424 31.2907 14.3424 25.2403ZM25.2958 16.787C20.628 16.787 16.8425 20.571 16.8425 25.2403C16.8425 29.9097 20.628 33.6938 25.2958 33.6938C29.9653 33.6938 33.7493 29.9098 33.7493 25.2403C33.7493 20.571 29.9653 16.787 25.2958 16.787Z" fill="#2B323B"/>
<path fill-rule="evenodd" clip-rule="evenodd" d="M4.74498 26.0485C5.42079 25.9077 6.08293 26.3412 6.22391 27.017C6.82709 29.9085 8.92371 32.315 11.7458 33.2847C12.3987 33.5088 12.7462 34.22 12.5218 34.873C12.2975 35.5258 11.5864 35.8732 10.9335 35.649C7.2701 34.3903 4.55816 31.2742 3.77659 27.5275C3.63561 26.8517 4.06918 26.1895 4.74498 26.0485Z" fill="#2B323B"/>
<path fill-rule="evenodd" clip-rule="evenodd" d="M27.1125 4.84793C27.3368 4.19503 28.0478 3.84759 28.7008 4.07191C32.3642 5.33058 35.0762 8.44664 35.8577 12.1934C35.9987 12.8692 35.5652 13.5313 34.8893 13.6723C34.2135 13.8133 33.5513 13.3797 33.4103 12.7039C32.8072 9.81231 30.7105 7.40588 27.8885 6.43626C27.2355 6.21194 26.8882 5.50083 27.1125 4.84793Z" fill="#2B323B"/>
</svg>
