<svg width="16" height="16" viewBox="0 0 16 16" fill="none" xmlns="http://www.w3.org/2000/svg">
<path d="M7.95845 14.5032C7.54605 14.4955 7.13938 14.4054 6.76238 14.2381C6.38532 14.0709 6.04556 13.8298 5.76312 13.5292L2.45781 10.2245C2.14765 9.92908 1.90246 9.57221 1.73788 9.17674C1.5733 8.78121 1.49292 8.35581 1.5019 7.92754C1.51086 7.49928 1.60898 7.07754 1.78998 6.68928C1.97098 6.30105 2.23087 5.95478 2.55312 5.67256L5.66846 2.55787C6.25719 1.92821 7.06532 1.54875 7.92578 1.49787C8.35445 1.48804 8.78032 1.56891 9.17552 1.73516C9.57078 1.9014 9.92638 2.14928 10.2191 2.46255L13.5245 5.76722C13.8395 6.05984 14.0891 6.41578 14.2569 6.81168C14.4247 7.20761 14.5067 7.63454 14.4978 8.06441C14.4889 8.49434 14.3891 8.91748 14.205 9.30608C14.0209 9.69468 13.7567 10.0399 13.4298 10.3192L10.3151 13.4339C10.013 13.7597 9.64898 14.022 9.24438 14.2056C8.83972 14.3892 8.40258 14.4903 7.95845 14.5032ZM3.16512 9.51721L6.46979 12.8219C6.67018 13.0431 6.91625 13.2181 7.19085 13.335C7.46552 13.4519 7.76232 13.5077 8.06065 13.4987C8.35898 13.4897 8.65185 13.4161 8.91892 13.2829C9.18605 13.1497 9.42112 12.9601 9.60778 12.7272L12.7225 9.61254C12.9555 9.42594 13.1453 9.19088 13.2785 8.92374C13.4118 8.65661 13.4855 8.36368 13.4944 8.06528C13.5033 7.76681 13.4473 7.47001 13.3303 7.19541C13.2133 6.92074 13.0379 6.67474 12.8165 6.47454L9.51112 3.16987C9.31372 2.95595 9.07385 2.78562 8.80685 2.66979C8.53978 2.55395 8.25152 2.49518 7.96045 2.49722C7.35332 2.54143 6.78598 2.81592 6.37448 3.26456L3.25981 6.37922C3.02992 6.56792 2.84308 6.80361 2.7119 7.07054C2.58071 7.33748 2.5082 7.62941 2.49923 7.92668C2.49026 8.22394 2.54506 8.51974 2.65992 8.79408C2.77478 9.06841 2.94703 9.31501 3.16512 9.51721Z" fill="#FF3434"/>
<path d="M7.99078 10.7847C7.92625 10.787 7.86192 10.7763 7.80152 10.7533C7.74118 10.7303 7.68605 10.6955 7.63945 10.6507C7.59285 10.6061 7.55565 10.5525 7.53012 10.4931C7.50458 10.4338 7.49118 10.3699 7.49078 10.3053V10.2627C7.49078 10.1301 7.54345 10.0029 7.63725 9.90914C7.73098 9.81534 7.85818 9.76268 7.99078 9.76268C8.12338 9.76268 8.25058 9.81534 8.34438 9.90914C8.43812 10.0029 8.49078 10.1301 8.49078 10.2627C8.49192 10.3977 8.44032 10.5278 8.34692 10.6253C8.25352 10.7228 8.12572 10.78 7.99078 10.7847ZM7.99078 8.49601C7.85818 8.49601 7.73098 8.44334 7.63725 8.34961C7.54345 8.25581 7.49078 8.12861 7.49078 7.99601V5.59603C7.49078 5.46342 7.54345 5.33624 7.63725 5.24248C7.73098 5.1487 7.85818 5.09603 7.99078 5.09603C8.12338 5.09603 8.25058 5.1487 8.34438 5.24248C8.43812 5.33624 8.49078 5.46342 8.49078 5.59603V7.99601C8.49078 8.12861 8.43812 8.25581 8.34438 8.34961C8.25058 8.44334 8.12338 8.49601 7.99078 8.49601Z" fill="#FF3434"/>
</svg>
