<svg width="240" height="75" viewBox="0 0 240 75" fill="none" xmlns="http://www.w3.org/2000/svg">
<g clip-path="url(#clip0_2009_9497)">
<path d="M34.1814 0.0679351C35.3247 -0.0275243 36.4866 -0.0633964 37.6314 0.032288C39.7481 0.194967 41.7934 0.879869 43.5884 2.02714C48.5953 5.18695 49.9185 10.273 51.3004 15.6526L53.1681 23.0567C54.7374 29.3155 56.4377 35.7072 58.2534 41.8463C62.9599 57.761 67.3969 49.6742 71.5702 39.4289C74.0092 33.441 75.9698 27.2029 77.5795 20.8262C79.1148 14.7455 78.1141 7.68539 83.0861 3.15986C85.5739 0.92506 88.8371 -0.217164 92.1576 -0.0152244C99.1342 0.380445 103.376 6.288 102.927 13.0908C102.47 20.0389 97.1956 22.5285 92.4435 26.242C90.7342 27.6004 89.1611 29.1258 87.747 30.7957C82.5172 36.971 80.0094 45.3066 78.2347 53.0904C76.6524 60.0301 77.334 67.2639 71.746 72.2575C70.0983 73.5378 68.2015 74.431 66.1377 74.7425C61.5385 75.4363 56.9084 73.4875 54.6357 69.2775C52.711 65.7128 52.3656 61.1322 51.6627 57.1984C50.4316 50.3078 47.7027 34.9963 42.0424 30.7954C40.6457 29.7589 38.9349 29.2972 37.2156 29.5672C34.6497 29.9698 32.6466 31.5551 31.0878 33.5819C26.717 39.2645 25.8512 47.3631 25.3909 54.3128C25.0558 59.3704 25.2602 65.2716 22.1782 69.541C20.2143 72.2619 17.625 74.2166 14.2699 74.7395C11.1217 75.2298 7.78476 74.601 5.19494 72.6781C2.46513 70.6639 0.649505 67.6239 0.156292 64.2416C-1.70031 51.7757 9.57346 50.6498 15.0592 43.0422C18.6123 38.1145 20.273 28.9512 20.7779 22.9727C21.2681 17.1691 20.8089 10.6445 24.486 5.7308C26.9163 2.48315 30.2327 0.67426 34.1814 0.0679351Z" fill="#F9AA66"/>
<path fill-rule="evenodd" clip-rule="evenodd" d="M190.542 54.1254C192.463 52.0119 194.049 50.6622 197.005 50.3122C203.09 49.5919 207.926 54.3866 208.444 60.3637C208.821 64.6954 208.403 68.1631 205.579 71.659C203.662 73.6192 201.34 74.7587 198.602 74.8098C194.765 74.8813 193.017 73.4101 190.451 70.9566L190.61 74.3595L185.546 74.3651C185.542 63.4648 185.445 52.4195 185.558 41.5313C187.248 41.5028 188.936 41.4857 190.627 41.4801L190.542 54.1254ZM203.54 62.526C203.418 57.0869 200.651 54.5769 195.473 55.0169C187.246 57.851 189.416 71.4392 198.322 69.9886C201.822 68.9875 203.62 66.1025 203.54 62.526Z" fill="#FBFBFB"/>
<path d="M143.911 1.01976C145.717 1.15994 147.609 1.12451 149.427 1.12114L149.418 33.8672C149.053 34.0287 143.959 33.9504 143.246 33.9539C142.822 33.0331 141.557 31.0025 141.009 30.0678L136.45 22.344L131.73 14.4715C130.889 13.0772 129.737 11.0398 128.761 9.81112C128.575 12.1205 128.737 16.3796 128.754 18.7924L128.773 33.9684C126.966 33.9025 125.059 33.9389 123.244 33.9448L123.248 1.06131C125.34 1.08723 127.482 1.0644 129.577 1.06477C131.126 3.456 132.843 6.58018 134.304 9.07624L143.782 25.2262C143.996 22.563 143.913 18.7791 143.914 16.0554L143.911 1.01976Z" fill="#FBFBFB"/>
<path d="M132.314 41.536C132.328 41.5334 132.341 41.5307 132.355 41.5281C139.772 40.7292 145.964 44.3357 147.307 51.7448C145.57 51.7484 143.833 51.7389 142.096 51.7169C140.173 45.5289 131.668 44.5398 127.657 48.9819C122.828 54.3301 123.462 66.5148 130.876 69.3589C134.876 70.8931 140.861 69.751 142.528 65.2545C142.889 64.2737 142.738 63.0113 142.682 61.9795C139.724 61.9842 136.723 62.019 133.772 61.8807L133.819 59.4431L133.782 57.2863C138.451 57.3175 143.121 57.3084 147.789 57.2589L147.79 74.3695L143.224 74.3587C143.217 73.0037 143.188 71.9622 143.072 70.6145C141.147 72.7695 139.149 74.3595 136.146 74.6822C121.677 76.2575 115.86 61.2451 120.962 49.5201C123.019 44.7922 127.409 42.1666 132.314 41.536Z" fill="#FBFBFB"/>
<path fill-rule="evenodd" clip-rule="evenodd" d="M169.2 50.3604C172.184 50.0489 174.707 50.2945 177.386 51.9589C183.135 55.5284 184.321 64.0225 180.907 69.6148C179.186 72.4325 176.571 73.9484 173.372 74.6481C170.646 75.1416 167.834 74.6348 165.443 73.2192C162.844 71.6334 160.981 69.0601 160.27 66.0748C158.465 58.7078 161.692 52.2378 169.2 50.3604ZM176.737 66.771C179.298 61.4439 177.011 54.4854 170.425 54.8798C161.609 56.4875 163.931 71.6701 172.287 70.1863C174.226 69.6113 175.833 68.6531 176.737 66.771Z" fill="#FBFBFB"/>
<path d="M176.899 1.02321L182.839 1.04304C182.243 2.62677 181.671 4.21918 181.123 5.81977C177.767 15.0095 174.454 24.7062 171.269 33.9731C168.889 33.9378 166.508 33.9325 164.127 33.9572L156.677 11.9019C155.453 8.36068 153.998 4.60821 152.905 1.0488C154.713 0.975498 157.192 1.10798 159.07 1.11614C159.34 2.53607 160.098 4.66115 160.563 6.07224L165.976 22.4429C166.539 24.1432 167.257 26.4915 167.993 28.0599C168.733 26.0728 169.58 23.032 170.293 20.8765L176.899 1.02321Z" fill="#FBFBFB"/>
<path fill-rule="evenodd" clip-rule="evenodd" d="M219.256 50.3754C222.24 49.9434 226.471 50.5184 228.651 52.7466C231.492 55.6528 230.812 60.1416 230.871 63.8801C230.927 67.3801 230.977 70.8698 230.98 74.3631L225.824 74.3648C225.938 73.3401 225.948 72.2907 225.975 71.2587C222.338 75.7004 214.796 76.2557 211.5 71.2125C210.918 70.146 210.714 69.1828 210.682 67.9657C210.458 59.5145 220.396 60.3375 226.131 60.2701C226.121 59.426 226.123 58.581 225.866 57.7704C225.506 56.6051 224.694 55.6372 223.616 55.0886C221.592 54.0587 218.578 54.3678 217.123 56.2439C216.847 56.5978 216.496 57.3604 216.293 57.7778L211.56 57.7692C212.451 53.0951 214.669 51.1816 219.256 50.3754ZM226.209 64.0457C224.948 64.0092 223.851 63.9801 222.592 64.0387C221.053 64.1375 218.317 64.1922 217.117 65.1078C213.925 67.5457 216.317 70.3284 219.435 70.6051C223.975 70.2489 226.067 68.9219 226.209 64.0457Z" fill="#FBFBFB"/>
<path d="M151.864 41.4739C153.475 41.5354 155.203 41.5131 156.824 41.5204L156.81 74.3628L151.86 74.3681L151.864 41.4739Z" fill="#FBFBFB"/>
<path d="M235.002 41.551C236.483 41.4445 238.327 41.486 239.837 41.4825L239.855 74.3725L234.987 74.3716L235.002 41.551Z" fill="#FBFBFB"/>
</g>
<defs>
<clipPath id="clip0_2009_9497">
<rect width="240" height="75" fill="white"/>
</clipPath>
</defs>
</svg>
