<svg xmlns="http://www.w3.org/2000/svg" viewBox="0 0 139 100" fill="none">
  <path opacity="0.1"
    d="M112.515 4.6416C115.772 1.74754 120.045 0.267794 124.394 0.529297H124.396C133.485 1.03914 139.047 8.63725 138.457 17.4863C138.158 21.9748 136.296 25.0144 133.706 27.5566C132.404 28.8351 130.916 29.9872 129.343 31.1367C127.78 32.2787 126.113 33.4302 124.504 34.6738L124.5 34.6768C122.168 36.5097 120.021 38.568 118.092 40.8213C110.95 49.1613 107.545 60.3903 105.148 70.7852C104.609 73.1237 104.264 75.4835 103.933 77.793C103.6 80.1094 103.282 82.3722 102.797 84.5518C101.831 88.8958 100.213 92.8564 96.5596 96.0898C94.3974 97.7477 91.9215 98.8963 89.2383 99.2969C83.2107 100.196 77.1826 97.6684 74.2295 92.2588C72.9662 89.9449 72.213 87.2844 71.6572 84.5254C71.0954 81.736 70.7554 78.9695 70.2715 76.291C69.4414 71.6962 68.101 64.2623 66.0088 57.2734C64.9626 53.7788 63.7236 50.3811 62.2598 47.4971C60.8 44.621 59.0945 42.2123 57.0928 40.7432C55.1072 39.2861 52.6659 38.6309 50.207 39.0127C46.5758 39.5763 43.7704 41.7929 41.6201 44.5576C35.6155 52.2781 34.4481 63.2386 33.8281 72.4951C33.5995 75.9079 33.5586 79.5126 33.0547 83.0127C32.5529 86.4982 31.5992 89.8002 29.5879 92.5557C26.9953 96.1075 23.6088 98.6202 19.2441 99.293C15.1059 99.9302 10.7424 99.109 7.37109 96.6338L7.36914 96.6328L7.03809 96.3838C3.64754 93.777 1.39632 89.9492 0.770508 85.7051L0.769531 85.7041L0.666992 84.9502C0.217289 81.2377 0.703057 78.3526 1.77539 75.9736C2.92215 73.4298 4.75927 71.4221 6.9375 69.585C9.1342 67.7322 11.6039 66.1085 14.0693 64.252C16.5109 62.4134 18.8961 60.3806 20.79 57.7832C23.2429 54.419 25.0212 49.6452 26.2715 44.7471C27.5243 39.8392 28.2581 34.7595 28.6006 30.749C28.937 26.8099 28.9403 22.7839 29.4873 18.8262C30.0295 14.904 31.0964 11.1828 33.5049 8C36.694 3.78565 41.0414 1.43179 46.249 0.637695C47.7696 0.512804 49.3017 0.46766 50.8037 0.591797L50.8066 0.592773C53.5814 0.803667 56.263 1.69137 58.6162 3.17871L58.6191 3.17969C65.1825 7.27591 66.9338 13.857 68.8057 21.0635L71.3262 30.9424C73.4449 39.2987 75.7407 47.8352 78.1934 56.0361C79.7842 61.3559 81.3734 64.7533 82.9912 66.6006C83.8062 67.5312 84.6599 68.1044 85.5586 68.2988C86.467 68.4953 87.3487 68.2889 88.1797 67.8027C89.8038 66.8525 91.3343 64.7756 92.7891 62.1689C94.0732 59.868 95.3356 57.0839 96.5752 54.1318L97.1045 52.8574C100.406 44.8412 103.06 36.4935 105.236 27.9658C105.762 25.9054 106.069 23.7692 106.339 21.6484C106.61 19.5181 106.843 17.4116 107.22 15.3672C107.971 11.289 109.28 7.55225 112.514 4.64062L112.515 4.6416Z"
    stroke="#F9AA66" stroke-opacity="0.5"
  />
</svg>