<svg width="36" height="30" viewBox="0 0 36 30" fill="none" xmlns="http://www.w3.org/2000/svg">
<g filter="url(#filter0_d_302_7151)">
<path d="M12.7964 21.6401C11.3064 21.6401 9.79643 20.9101 8.93643 19.6901C7.61643 17.8201 7.97643 15.4901 8.31643 14.2701C8.98643 11.8001 10.4964 9.6301 12.5764 8.1401C12.8364 7.9601 13.1764 7.9501 13.4364 8.1301L14.9364 9.1601C15.1064 9.2801 15.2264 9.4601 15.2564 9.6701C15.2864 9.8801 15.2264 10.0901 15.0964 10.2501C14.5764 10.9001 14.1364 11.6101 13.7864 12.3701C14.6864 12.6101 15.5164 13.1201 16.1465 13.8201C17.2365 15.0501 17.6065 16.7401 17.1365 18.3501C16.6765 19.9001 15.4964 21.0801 13.9764 21.5001C13.5964 21.6101 13.2064 21.6601 12.8064 21.6601L12.7964 21.6401ZM13.0364 9.6701C11.4664 10.9301 10.2864 12.7301 9.76645 14.6601C9.31645 16.3101 9.46644 17.8201 10.1664 18.8201C10.9064 19.8601 12.3364 20.3801 13.5664 20.0401C14.5964 19.7501 15.3764 18.9801 15.6864 17.9201C16.0165 16.8101 15.7665 15.6501 15.0164 14.8101C14.4364 14.1501 13.5664 13.7401 12.6864 13.7001C12.4464 13.6901 12.2264 13.5701 12.0964 13.3701C11.9664 13.1701 11.9364 12.9201 12.0164 12.7001C12.3764 11.7301 12.8464 10.8101 13.4364 9.9601L13.0264 9.6801L13.0364 9.6701Z" fill="#F9AA66"/>
<path d="M22.9764 21.6401C21.4864 21.6401 19.9764 20.9101 19.1164 19.6901C17.7964 17.8201 18.1564 15.4901 18.4964 14.2701C19.1664 11.8001 20.6764 9.6301 22.7564 8.1401C23.0164 7.9601 23.3564 7.9501 23.6164 8.1301L25.1164 9.1601C25.2864 9.2801 25.4064 9.4601 25.4364 9.6701C25.4664 9.8801 25.4064 10.0901 25.2764 10.2501C24.7564 10.9001 24.3164 11.6101 23.9564 12.3701C24.8564 12.6101 25.6864 13.1201 26.3164 13.8201C27.4064 15.0501 27.7764 16.7401 27.2964 18.3501C26.8364 19.9001 25.6564 21.0701 24.1364 21.4901C23.7564 21.6001 23.3664 21.6501 22.9664 21.6501L22.9764 21.6401ZM23.2164 9.6701C21.6564 10.9301 20.4664 12.7301 19.9464 14.6601C19.4964 16.3101 19.6464 17.8201 20.3464 18.8201C21.0864 19.8701 22.5164 20.3801 23.7464 20.0401C24.7764 19.7501 25.5564 18.9801 25.8664 17.9201C26.1964 16.8101 25.9464 15.6501 25.1964 14.8101C24.6164 14.1501 23.7464 13.7401 22.8664 13.7001C22.6264 13.6901 22.4064 13.5701 22.2764 13.3701C22.1464 13.1701 22.1164 12.9201 22.1964 12.7001C22.5564 11.7301 23.0264 10.8101 23.6164 9.9601L23.2064 9.6801L23.2164 9.6701Z" fill="#F9AA66"/>
</g>
<defs>
<filter id="filter0_d_302_7151" x="0" y="0" width="35.5027" height="29.6602" filterUnits="userSpaceOnUse" color-interpolation-filters="sRGB">
<feFlood flood-opacity="0" result="BackgroundImageFix"/>
<feColorMatrix in="SourceAlpha" type="matrix" values="0 0 0 0 0 0 0 0 0 0 0 0 0 0 0 0 0 0 127 0" result="hardAlpha"/>
<feOffset/>
<feGaussianBlur stdDeviation="4"/>
<feComposite in2="hardAlpha" operator="out"/>
<feColorMatrix type="matrix" values="0 0 0 0 1 0 0 0 0 1 0 0 0 0 1 0 0 0 0.5 0"/>
<feBlend mode="normal" in2="BackgroundImageFix" result="effect1_dropShadow_302_7151"/>
<feBlend mode="normal" in="SourceGraphic" in2="effect1_dropShadow_302_7151" result="shape"/>
</filter>
</defs>
</svg>
