<svg width="20" height="20" viewBox="0 0 20 20" fill="none" xmlns="http://www.w3.org/2000/svg">
<path d="M10.8656 4.45483C11.0293 4.15098 11.4089 4.03715 11.7127 4.20092H11.7135L11.7144 4.20174C11.7152 4.20217 11.7163 4.20265 11.7176 4.20337C11.7205 4.20494 11.7246 4.20785 11.7298 4.21069C11.7404 4.21645 11.756 4.22435 11.7754 4.2351C11.8146 4.25682 11.8716 4.28866 11.943 4.32951C12.0859 4.41117 12.2886 4.53012 12.5314 4.67944C13.0158 4.97737 13.6654 5.40124 14.3177 5.90177C14.9663 6.39947 15.638 6.98871 16.1536 7.61971C16.6572 8.23597 17.083 8.9782 17.083 9.77059L17.0781 9.91788C17.0297 10.655 16.6267 11.3441 16.1545 11.9223C15.6389 12.5536 14.9663 13.1423 14.3177 13.6402C13.6653 14.141 13.0158 14.5653 12.5314 14.8634C12.2886 15.0127 12.0859 15.1316 11.943 15.2133C11.8716 15.2542 11.8146 15.286 11.7754 15.3077C11.7562 15.3183 11.7411 15.3264 11.7306 15.3321C11.7253 15.335 11.7206 15.3378 11.7176 15.3394C11.7163 15.3401 11.7152 15.3406 11.7144 15.3411L11.7135 15.3419H11.7127C11.4089 15.5057 11.0294 15.3926 10.8656 15.0888C10.7017 14.785 10.8156 14.4054 11.1195 14.2416C11.1198 14.2414 11.121 14.2413 11.1219 14.2408C11.1238 14.2398 11.1268 14.2381 11.1309 14.2359C11.1393 14.2313 11.1526 14.2236 11.1699 14.2139C11.2046 14.1947 11.256 14.1655 11.3221 14.1277C11.4549 14.0517 11.6464 13.9403 11.8763 13.7989C12.3372 13.5153 12.9481 13.1156 13.556 12.649C14.1677 12.1795 14.7564 11.6573 15.186 11.1313C15.4023 10.8664 15.5613 10.6204 15.6678 10.3964H3.95801C3.61283 10.3964 3.33301 10.1166 3.33301 9.7714C3.33303 9.42624 3.61284 9.1464 3.95801 9.1464H15.6686C15.5621 8.92222 15.4028 8.67602 15.186 8.41072C14.7564 7.88495 14.1685 7.36231 13.5568 6.89298C12.9488 6.42649 12.3372 6.02742 11.8763 5.74389C11.6467 5.60265 11.4557 5.49104 11.3229 5.41512C11.2566 5.37722 11.2046 5.34807 11.1699 5.32885C11.1527 5.31929 11.1393 5.31233 11.1309 5.3077C11.1267 5.3054 11.1238 5.30303 11.1219 5.302C11.121 5.30148 11.1198 5.30138 11.1195 5.30119C10.8158 5.13746 10.7021 4.75859 10.8656 4.45483Z" fill="#2B323B"/>
</svg>
