<svg width="36" height="35" viewBox="0 0 36 35" fill="none" xmlns="http://www.w3.org/2000/svg">
<rect x="1.75208" y="1.25049" width="32" height="32" rx="6" fill="#F9AA66" fill-opacity="0.2"/>
<g filter="url(#filter0_d_2013_3558)">
<path d="M15.9767 9.0911C16.7051 7.6363 18.799 7.6363 19.5274 9.0911L21.3546 12.7425L21.4171 12.8372C21.4908 12.9234 21.596 12.9831 21.7159 13.0003L25.8038 13.5882H25.8048C27.4176 13.8211 28.0904 15.7991 26.8976 16.9436L26.8966 16.9427L23.9415 19.7825C23.8293 19.8903 23.7814 20.0423 23.8067 20.1888V20.1897L24.505 24.1995V24.2005C24.7861 25.8253 23.0674 27.0175 21.6339 26.2727V26.2737L17.9796 24.3792V24.3782C17.8385 24.3051 17.6667 24.3043 17.5235 24.3782L13.8702 26.2737L13.8692 26.2727C12.4362 27.0165 10.717 25.8252 11.0001 24.1995L11.6974 20.1897V20.1888C11.7227 20.0423 11.6738 19.8913 11.5616 19.7835V19.7825L8.60751 16.9427L8.60654 16.9436C7.4137 15.7991 8.08653 13.8211 9.69931 13.5882H9.70029L13.7882 13.0003L13.9034 12.969C14.0119 12.9251 14.0998 12.8439 14.1505 12.7425L15.9767 9.09208V9.0911ZM18.1856 9.76298C18.0212 9.43466 17.5575 9.41428 17.3556 9.70145L17.3184 9.76298L15.4923 13.4134C15.2017 13.9948 14.6421 14.3927 14.0011 14.4847L9.91318 15.0725C9.5067 15.1317 9.37624 15.6025 9.64462 15.8606L9.6456 15.8616L12.6017 18.7015V18.7024C13.0411 19.125 13.2583 19.7241 13.1915 20.3265L13.1749 20.4466L12.4786 24.4563V24.4573C12.4166 24.8148 12.8069 25.1356 13.1788 24.9427L13.1798 24.9417L16.8331 23.0472H16.8341C17.4092 22.7496 18.0959 22.7487 18.671 23.0472L22.3243 24.9417L22.3253 24.9427C22.6737 25.1234 23.0401 24.8528 23.0333 24.5227L23.0265 24.4563L22.3292 20.4466C22.2174 19.8046 22.4338 19.1531 22.9024 18.7024V18.7015L25.8595 15.8606C26.128 15.6024 25.9969 15.1323 25.5899 15.0735L21.503 14.4847C20.9413 14.4041 20.4438 14.0889 20.1339 13.6224L20.0128 13.4134L18.1856 9.76298Z" fill="#F9AA66"/>
</g>
<defs>
<filter id="filter0_d_2013_3558" x="0" y="0" width="35.504" height="34.4995" filterUnits="userSpaceOnUse" color-interpolation-filters="sRGB">
<feFlood flood-opacity="0" result="BackgroundImageFix"/>
<feColorMatrix in="SourceAlpha" type="matrix" values="0 0 0 0 0 0 0 0 0 0 0 0 0 0 0 0 0 0 127 0" result="hardAlpha"/>
<feOffset/>
<feGaussianBlur stdDeviation="4"/>
<feComposite in2="hardAlpha" operator="out"/>
<feColorMatrix type="matrix" values="0 0 0 0 1 0 0 0 0 1 0 0 0 0 1 0 0 0 0.5 0"/>
<feBlend mode="normal" in2="BackgroundImageFix" result="effect1_dropShadow_2013_3558"/>
<feBlend mode="normal" in="SourceGraphic" in2="effect1_dropShadow_2013_3558" result="shape"/>
</filter>
</defs>
</svg>
