<svg width="62" height="45" viewBox="0 0 62 45" fill="none" xmlns="http://www.w3.org/2000/svg">
<path d="M20.6025 0.0636661C21.2906 0.0063423 21.99 -0.0151991 22.6791 0.0422599C23.9531 0.13995 25.1841 0.551236 26.2646 1.24018C29.2782 3.13766 30.0746 6.19184 30.9064 9.42235L32.0305 13.8686C32.9751 17.627 33.9985 21.4652 35.0914 25.1518C37.9242 34.7086 40.5948 29.8525 43.1067 23.7001C44.5747 20.1044 45.7548 16.3584 46.7237 12.5291C47.6478 8.87764 47.0455 4.63798 50.0381 1.92038C51.5355 0.578374 53.4996 -0.107537 55.4982 0.0137284C59.6974 0.25133 62.2504 3.79885 61.9805 7.88394C61.7051 12.0563 58.5306 13.5513 55.6703 15.7813C54.6415 16.5971 53.6946 17.513 52.8435 18.5158C49.6957 22.2241 48.1863 27.2297 47.1181 31.9039C46.1656 36.0713 46.5759 40.4152 43.2125 43.4138C42.2207 44.1827 41.0791 44.7191 39.8369 44.9061C37.0686 45.3227 34.2818 44.1525 32.9139 41.6243C31.7554 39.4837 31.5475 36.7331 31.1244 34.3708C30.3835 30.2329 28.7409 21.0383 25.334 18.5157C24.4933 17.8933 23.4636 17.616 22.4288 17.7781C20.8844 18.0199 19.6787 18.9719 18.7405 20.189C16.1097 23.6014 15.5885 28.4646 15.3115 32.638C15.1098 35.6751 15.2328 39.2188 13.3778 41.7826C12.1957 43.4165 10.6372 44.5903 8.6178 44.9043C6.72293 45.1988 4.71443 44.8211 3.15562 43.6664C1.51256 42.4569 0.419737 40.6314 0.122874 38.6003C-0.994608 31.1144 5.79104 30.4383 9.09289 25.8699C11.2315 22.9108 12.2311 17.4082 12.535 13.8181C12.83 10.333 12.5536 6.41493 14.7668 3.46424C16.2297 1.51402 18.2258 0.427767 20.6025 0.0636661Z" fill="#F9AA66"/>
</svg>
